<svg xmlns="http://www.w3.org/2000/svg" width="115.01999999999998" height="35" viewBox="0 0 115.01999999999998 35"><rect class="svg__rect" x="0" y="0" width="55.599999999999994" height="35" fill="#31C4F3"/><rect class="svg__rect" x="53.599999999999994" y="0" width="61.41999999999999" height="35" fill="#389AD5"/><path class="svg__text" d="M13.95 18.00L13.95 18.00L13.95 17.52Q13.95 16.28 14.39 15.32Q14.83 14.37 15.64 13.86Q16.44 13.35 17.49 13.35Q18.53 13.35 19.34 13.85Q20.14 14.35 20.58 15.29Q21.02 16.23 21.03 17.48L21.03 17.48L21.03 17.96Q21.03 19.21 20.59 20.16Q20.16 21.10 19.35 21.61Q18.55 22.12 17.50 22.12L17.50 22.12Q16.46 22.12 15.65 21.61Q14.84 21.10 14.40 20.17Q13.95 19.23 13.95 18.00ZM15.43 17.46L15.43 17.96Q15.43 19.36 15.98 20.13Q16.53 20.90 17.50 20.90L17.50 20.90Q18.48 20.90 19.01 20.15Q19.54 19.40 19.54 17.96L19.54 17.96L19.54 17.51Q19.54 16.09 19.01 15.34Q18.47 14.58 17.49 14.58L17.49 14.58Q16.53 14.58 15.98 15.33Q15.44 16.09 15.43 17.46L15.43 17.46ZM26.97 22L25.49 22L25.49 13.47L28.49 13.47Q29.97 13.47 30.77 14.13Q31.57 14.79 31.57 16.05L31.57 16.05Q31.57 16.90 31.16 17.48Q30.75 18.06 30.01 18.37L30.01 18.37L31.92 21.92L31.92 22L30.34 22L28.63 18.71L26.97 18.71L26.97 22ZM26.97 14.66L26.97 17.52L28.50 17.52Q29.25 17.52 29.67 17.15Q30.09 16.77 30.09 16.11L30.09 16.11Q30.09 15.43 29.70 15.05Q29.31 14.68 28.54 14.66L28.54 14.66L26.97 14.66ZM41.55 22L35.97 22L35.97 13.47L41.50 13.47L41.50 14.66L37.45 14.66L37.45 17.02L40.95 17.02L40.95 18.19L37.45 18.19L37.45 20.82L41.55 20.82L41.55 22Z" fill="#FFFFFF"/><path class="svg__text" d="M69.99 22L67.79 22L67.79 13.60L69.74 13.60L72.70 18.45L75.58 13.60L77.53 13.60L77.56 22L75.38 22L75.35 17.55L73.19 21.17L72.14 21.17L69.99 17.67L69.99 22ZM84.14 22L81.71 22L85.42 13.60L87.76 13.60L91.48 22L89.01 22L88.35 20.37L84.80 20.37L84.14 22ZM86.57 15.93L85.49 18.61L87.65 18.61L86.57 15.93ZM98.01 22L95.63 22L95.63 13.60L99.48 13.60Q100.61 13.60 101.45 13.98Q102.29 14.35 102.75 15.06Q103.21 15.76 103.21 16.71L103.21 16.71Q103.21 17.66 102.75 18.35Q102.29 19.05 101.45 19.42Q100.61 19.80 99.48 19.80L99.48 19.80L98.01 19.80L98.01 22ZM98.01 15.47L98.01 17.93L99.33 17.93Q100.06 17.93 100.43 17.61Q100.81 17.29 100.81 16.71L100.81 16.71Q100.81 16.12 100.43 15.80Q100.06 15.47 99.33 15.47L99.33 15.47L98.01 15.47Z" fill="#FFFFFF" x="66.6"/></svg>