<svg xmlns="http://www.w3.org/2000/svg" width="145.3" height="35" viewBox="0 0 145.3 35"><rect class="svg__rect" x="0" y="0" width="85.88" height="35" fill="#31C4F3"/><rect class="svg__rect" x="83.88" y="0" width="61.420000000000016" height="35" fill="#389AD5"/><path class="svg__text" d="M13.78 19.42L13.78 19.42L15.27 19.42Q15.27 20.15 15.75 20.55Q16.23 20.95 17.12 20.95L17.12 20.95Q17.90 20.95 18.29 20.63Q18.68 20.32 18.68 19.80L18.68 19.80Q18.68 19.24 18.28 18.94Q17.89 18.63 16.85 18.32Q15.82 18.01 15.21 17.63L15.21 17.63Q14.05 16.90 14.05 15.72L14.05 15.72Q14.05 14.69 14.89 14.02Q15.73 13.35 17.07 13.35L17.07 13.35Q17.96 13.35 18.66 13.68Q19.36 14.01 19.75 14.61Q20.15 15.22 20.15 15.96L20.15 15.96L18.68 15.96Q18.68 15.29 18.26 14.91Q17.84 14.54 17.06 14.54L17.06 14.54Q16.33 14.54 15.93 14.85Q15.53 15.16 15.53 15.71L15.53 15.71Q15.53 16.18 15.96 16.50Q16.40 16.81 17.39 17.10Q18.39 17.40 18.99 17.78Q19.60 18.16 19.88 18.65Q20.16 19.13 20.16 19.79L20.16 19.79Q20.16 20.86 19.34 21.49Q18.52 22.12 17.12 22.12L17.12 22.12Q16.20 22.12 15.42 21.77Q14.64 21.43 14.21 20.83Q13.78 20.22 13.78 19.42ZM30.03 22L24.45 22L24.45 13.47L29.98 13.47L29.98 14.66L25.93 14.66L25.93 17.02L29.43 17.02L29.43 18.19L25.93 18.19L25.93 20.82L30.03 20.82L30.03 22ZM35.70 22L34.22 22L34.22 13.47L37.22 13.47Q38.70 13.47 39.50 14.13Q40.30 14.79 40.30 16.05L40.30 16.05Q40.30 16.90 39.89 17.48Q39.48 18.06 38.74 18.37L38.74 18.37L40.65 21.92L40.65 22L39.07 22L37.36 18.71L35.70 18.71L35.70 22ZM35.70 14.66L35.70 17.52L37.23 17.52Q37.98 17.52 38.40 17.15Q38.82 16.77 38.82 16.11L38.82 16.11Q38.82 15.43 38.43 15.05Q38.04 14.68 37.27 14.66L37.27 14.66L35.70 14.66ZM46.99 22L43.94 13.47L45.56 13.47L47.70 20.14L49.87 13.47L51.50 13.47L48.43 22L46.99 22ZM61.03 22L55.45 22L55.45 13.47L60.99 13.47L60.99 14.66L56.93 14.66L56.93 17.02L60.44 17.02L60.44 18.19L56.93 18.19L56.93 20.82L61.03 20.82L61.03 22ZM66.71 22L65.22 22L65.22 13.47L68.22 13.47Q69.70 13.47 70.50 14.13Q71.31 14.79 71.31 16.05L71.31 16.05Q71.31 16.90 70.89 17.48Q70.48 18.06 69.74 18.37L69.74 18.37L71.66 21.92L71.66 22L70.07 22L68.36 18.71L66.71 18.71L66.71 22ZM66.71 14.66L66.71 17.52L68.23 17.52Q68.98 17.52 69.40 17.15Q69.82 16.77 69.82 16.11L69.82 16.11Q69.82 15.43 69.43 15.05Q69.04 14.68 68.27 14.66L68.27 14.66L66.71 14.66Z" fill="#FFFFFF"/><path class="svg__text" d="M100.27 22L98.07 22L98.07 13.60L100.02 13.60L102.98 18.45L105.86 13.60L107.81 13.60L107.84 22L105.66 22L105.63 17.55L103.47 21.17L102.42 21.17L100.27 17.67L100.27 22ZM114.42 22L111.99 22L115.70 13.60L118.04 13.60L121.76 22L119.29 22L118.63 20.37L115.08 20.37L114.42 22ZM116.85 15.93L115.77 18.61L117.93 18.61L116.85 15.93ZM128.29 22L125.91 22L125.91 13.60L129.76 13.60Q130.89 13.60 131.73 13.98Q132.57 14.35 133.03 15.06Q133.49 15.76 133.49 16.71L133.49 16.71Q133.49 17.66 133.03 18.35Q132.57 19.05 131.73 19.42Q130.89 19.80 129.76 19.80L129.76 19.80L128.29 19.80L128.29 22ZM128.29 15.47L128.29 17.93L129.61 17.93Q130.34 17.93 130.71 17.61Q131.09 17.29 131.09 16.71L131.09 16.71Q131.09 16.12 130.71 15.80Q130.34 15.47 129.61 15.47L129.61 15.47L128.29 15.47Z" fill="#FFFFFF" x="96.88"/></svg>