<svg xmlns="http://www.w3.org/2000/svg" width="132.61" height="35" viewBox="0 0 132.61 35"><rect class="svg__rect" x="0" y="0" width="67.83" height="35" fill="#31C4F3"/><rect class="svg__rect" x="65.83" y="0" width="66.78" height="35" fill="#389AD5"/><path class="svg__text" d="M13.78 19.42L13.78 19.42L15.27 19.42Q15.27 20.15 15.75 20.55Q16.23 20.95 17.12 20.95L17.12 20.95Q17.90 20.95 18.29 20.63Q18.68 20.32 18.68 19.80L18.68 19.80Q18.68 19.24 18.28 18.94Q17.89 18.63 16.85 18.32Q15.82 18.01 15.21 17.63L15.21 17.63Q14.05 16.90 14.05 15.72L14.05 15.72Q14.05 14.69 14.89 14.02Q15.73 13.35 17.07 13.35L17.07 13.35Q17.96 13.35 18.66 13.68Q19.36 14.01 19.75 14.61Q20.15 15.22 20.15 15.96L20.15 15.96L18.68 15.96Q18.68 15.29 18.26 14.91Q17.84 14.54 17.06 14.54L17.06 14.54Q16.33 14.54 15.93 14.85Q15.53 15.16 15.53 15.71L15.53 15.71Q15.53 16.18 15.96 16.50Q16.40 16.81 17.39 17.10Q18.39 17.40 18.99 17.78Q19.60 18.16 19.88 18.65Q20.16 19.13 20.16 19.79L20.16 19.79Q20.16 20.86 19.34 21.49Q18.52 22.12 17.12 22.12L17.12 22.12Q16.20 22.12 15.42 21.77Q14.64 21.43 14.21 20.83Q13.78 20.22 13.78 19.42ZM25.93 22L24.45 22L24.45 13.47L25.93 13.47L25.93 17.02L29.74 17.02L29.74 13.47L31.22 13.47L31.22 22L29.74 22L29.74 18.21L25.93 18.21L25.93 22ZM35.69 18.00L35.69 18.00L35.69 17.52Q35.69 16.28 36.13 15.32Q36.58 14.37 37.38 13.86Q38.19 13.35 39.23 13.35Q40.27 13.35 41.08 13.85Q41.89 14.35 42.32 15.29Q42.76 16.23 42.77 17.48L42.77 17.48L42.77 17.96Q42.77 19.21 42.34 20.16Q41.90 21.10 41.10 21.61Q40.29 22.12 39.24 22.12L39.24 22.12Q38.21 22.12 37.39 21.61Q36.58 21.10 36.14 20.17Q35.70 19.23 35.69 18.00ZM37.17 17.46L37.17 17.96Q37.17 19.36 37.72 20.13Q38.27 20.90 39.24 20.90L39.24 20.90Q40.23 20.90 40.76 20.15Q41.29 19.40 41.29 17.96L41.29 17.96L41.29 17.51Q41.29 16.09 40.75 15.34Q40.22 14.58 39.23 14.58L39.23 14.58Q38.27 14.58 37.73 15.33Q37.19 16.09 37.17 17.46L37.17 17.46ZM48.72 22L47.23 22L47.23 13.47L50.50 13.47Q51.93 13.47 52.77 14.21Q53.61 14.96 53.61 16.18L53.61 16.18Q53.61 17.44 52.79 18.13Q51.96 18.83 50.48 18.83L50.48 18.83L48.72 18.83L48.72 22ZM48.72 14.66L48.72 17.64L50.50 17.64Q51.29 17.64 51.71 17.27Q52.12 16.90 52.12 16.19L52.12 16.19Q52.12 15.50 51.70 15.09Q51.28 14.68 50.54 14.66L50.54 14.66L48.72 14.66Z" fill="#FFFFFF"/><path class="svg__text" d="M82.10 22L79.37 13.60L81.82 13.60L83.51 18.96L85.29 13.60L87.47 13.60L89.16 19.01L90.93 13.60L93.20 13.60L90.47 22L87.93 22L86.32 16.89L84.64 22L82.10 22ZM100.09 22L97.71 22L97.71 13.60L100.09 13.60L100.09 22ZM107.62 22L105.26 22L105.26 13.60L107.62 13.60L107.62 17.09L110.87 13.60L113.48 13.60L110.05 17.32L113.66 22L110.90 22L108.50 18.95L107.62 19.90L107.62 22ZM120.15 22L117.77 22L117.77 13.60L120.15 13.60L120.15 22Z" fill="#FFFFFF" x="78.83"/></svg>